<svg width="148" height="21" viewBox="0 0 148 21" fill="none" xmlns="http://www.w3.org/2000/svg">
<path d="M10.9983 0L14.3968 6.88495L21.9966 7.99578L16.4975 13.352L17.7953 20.9188L10.9983 17.3443L4.20136 20.9188L5.49916 13.352L0 7.99578L7.59984 6.88495L10.9983 0Z" fill="#FFA500"/>
<path d="M42.4991 -1.52588e-05L45.8976 6.88493L53.4975 7.99576L47.9983 13.3519L49.2961 20.9188L42.4991 17.3443L35.7022 20.9188L37 13.3519L31.5008 7.99576L39.1007 6.88493L42.4991 -1.52588e-05Z" fill="#FFA500"/>
<path d="M74 -1.52588e-05L77.3985 6.88493L84.9983 7.99576L79.4992 13.3519L80.797 20.9188L74 17.3443L67.203 20.9188L68.5008 13.3519L63.0017 7.99576L70.6015 6.88493L74 -1.52588e-05Z" fill="#FFA500"/>
<path d="M105.501 -1.52588e-05L108.899 6.88493L116.499 7.99576L111 13.3519L112.298 20.9188L105.501 17.3443L98.7039 20.9188L100.002 13.3519L94.5025 7.99576L102.102 6.88493L105.501 -1.52588e-05Z" fill="#FFA500"/>
<path d="M137.002 -1.52588e-05L140.4 6.88493L148 7.99576L142.501 13.3519L143.799 20.9188L137.002 17.3443L130.205 20.9188L131.503 13.3519L126.003 7.99576L133.603 6.88493L137.002 -1.52588e-05Z" fill="#040429" fill-opacity="0.2"/>
</svg>
