<svg width="215" height="85" viewBox="0 0 215 85" fill="none" xmlns="http://www.w3.org/2000/svg">
<path fill-rule="evenodd" clip-rule="evenodd" d="M29.5525 84.4303L52.7219 71.0543L29.1074 57.4399L23.1658 54.0175C23.1658 43.1811 23.1658 32.3445 23.1658 21.5081L0 34.8522V40.6736V61.5864V67.4077L23.1658 80.7519L29.5525 84.4306V84.4303Z" fill="#040429"/>
<path fill-rule="evenodd" clip-rule="evenodd" d="M29.556 44.8196V50.884L52.722 64.2282V37.494V31.4756V13.5193C23.1737 -3.50171 57.847 16.4712 29.556 0.17511V24.1498V44.8196Z" fill="#040429"/>
<path d="M80.6537 34.8324C80.6537 36.3894 80.2981 37.7855 79.587 39.0206C78.8758 40.2482 77.9776 41.1914 76.8922 41.8502C76.0762 42.3442 75.1817 42.6885 74.2086 42.8832C73.2354 43.0778 72.0827 43.1751 70.7502 43.1751H64.8553V26.456H70.9187C72.281 26.456 73.4563 26.5721 74.4444 26.8041C75.4325 27.0287 76.2634 27.3506 76.9371 27.7698C78.0899 28.4734 78.9956 29.4241 79.6543 30.6218C80.3206 31.812 80.6537 33.2155 80.6537 34.8324ZM76.196 34.7987C76.196 33.6983 75.9939 32.7589 75.5897 31.9804C75.1929 31.1944 74.5604 30.5806 73.6921 30.1389C73.2504 29.9219 72.7975 29.7759 72.3334 29.701C71.8768 29.6187 71.1844 29.5775 70.2562 29.5775H69.167V40.0424H70.2562C71.2817 40.0424 72.034 39.9975 72.5131 39.9076C72.9922 39.8103 73.46 39.6382 73.9166 39.3911C74.7026 38.942 75.279 38.3432 75.6458 37.5946C76.0126 36.8386 76.196 35.9066 76.196 34.7987ZM89.4118 38.7174L92.2863 30.5656H96.4408L89.4343 47.8012H85.0552L87.0539 43.0853L82.147 30.5656H86.3914L89.4118 38.7174ZM111.363 43.1751H107.299V36.9209C107.299 36.4119 107.272 35.9066 107.22 35.4051C107.168 34.896 107.078 34.5218 106.951 34.2822C106.801 34.0053 106.58 33.8031 106.288 33.6759C106.004 33.5486 105.603 33.485 105.087 33.485C104.72 33.485 104.346 33.5449 103.964 33.6647C103.59 33.7844 103.182 33.9753 102.74 34.2373V43.1751H98.6977V30.5656H102.74V31.9579C103.459 31.3965 104.147 30.9661 104.806 30.6667C105.472 30.3673 106.209 30.2175 107.018 30.2175C108.38 30.2175 109.443 30.6143 110.207 31.4078C110.978 32.2012 111.363 33.3877 111.363 34.9672V43.1751ZM122.726 39.8852V37.2577C122.18 37.3027 121.589 37.3663 120.952 37.4486C120.316 37.5235 119.833 37.6133 119.504 37.7181C119.1 37.8454 118.789 38.0325 118.572 38.2795C118.362 38.5191 118.258 38.8372 118.258 39.2339C118.258 39.4959 118.28 39.7093 118.325 39.874C118.37 40.0386 118.482 40.1958 118.662 40.3456C118.834 40.4953 119.04 40.6076 119.279 40.6824C119.519 40.7498 119.893 40.7835 120.402 40.7835C120.806 40.7835 121.214 40.7011 121.626 40.5364C122.045 40.3718 122.412 40.1547 122.726 39.8852ZM122.726 41.8389C122.509 42.0036 122.24 42.202 121.918 42.434C121.596 42.6661 121.293 42.8495 121.009 42.9842C120.612 43.1639 120.2 43.2949 119.773 43.3772C119.347 43.467 118.879 43.512 118.37 43.512C117.172 43.512 116.169 43.1414 115.361 42.4004C114.552 41.6593 114.148 40.7123 114.148 39.5596C114.148 38.6388 114.354 37.8865 114.766 37.3027C115.177 36.7188 115.761 36.2584 116.517 35.9216C117.266 35.5847 118.194 35.3452 119.302 35.2029C120.41 35.0607 121.559 34.9559 122.749 34.8886V34.8212C122.749 34.125 122.464 33.6459 121.896 33.3839C121.327 33.1145 120.488 32.9797 119.38 32.9797C118.714 32.9797 118.003 33.0995 117.247 33.339C116.491 33.5711 115.948 33.7507 115.619 33.878H115.248V30.8351C115.675 30.7228 116.367 30.5918 117.326 30.4421C118.291 30.2849 119.257 30.2063 120.223 30.2063C122.521 30.2063 124.179 30.5619 125.197 31.273C126.222 31.9767 126.735 33.0845 126.735 34.5966V43.1751H122.726V41.8389ZM141.411 39.1778C141.411 40.4803 140.827 41.532 139.659 42.333C138.491 43.1265 136.893 43.5232 134.864 43.5232C133.742 43.5232 132.723 43.4184 131.81 43.2088C130.897 42.9992 130.163 42.7671 129.609 42.5126V39.189H129.98C130.182 39.3313 130.414 39.4885 130.676 39.6606C130.946 39.8253 131.324 40.005 131.81 40.1996C132.229 40.3718 132.705 40.5215 133.236 40.6487C133.768 40.7685 134.337 40.8284 134.943 40.8284C135.736 40.8284 136.324 40.7423 136.706 40.5701C137.088 40.3905 137.278 40.1285 137.278 39.7841C137.278 39.4772 137.166 39.2564 136.942 39.1217C136.717 38.9794 136.29 38.8447 135.662 38.7174C135.362 38.6501 134.954 38.579 134.438 38.5041C133.929 38.4218 133.465 38.3244 133.045 38.2122C131.9 37.9127 131.05 37.4486 130.497 36.8198C129.943 36.1836 129.666 35.3938 129.666 34.4506C129.666 33.238 130.238 32.2312 131.384 31.4302C132.536 30.6218 134.108 30.2175 136.099 30.2175C137.043 30.2175 137.945 30.3149 138.806 30.5095C139.674 30.6966 140.351 30.8987 140.838 31.1158V34.3047H140.49C139.891 33.893 139.206 33.5599 138.435 33.3054C137.671 33.0434 136.897 32.9124 136.111 32.9124C135.459 32.9124 134.909 33.0022 134.46 33.1818C134.018 33.3615 133.798 33.616 133.798 33.9454C133.798 34.2448 133.899 34.4731 134.101 34.6303C134.303 34.7875 134.778 34.9447 135.527 35.1019C135.939 35.1842 136.38 35.2666 136.852 35.3489C137.331 35.4238 137.81 35.5211 138.289 35.6409C139.352 35.9178 140.138 36.3557 140.647 36.9546C141.156 37.5459 141.411 38.287 141.411 39.1778ZM152.167 43.0628C151.733 43.1751 151.273 43.2612 150.786 43.3211C150.3 43.3884 149.705 43.4221 149.001 43.4221C147.429 43.4221 146.257 43.104 145.486 42.4677C144.723 41.8314 144.341 40.7423 144.341 39.2003V33.3054H142.679V30.5656H144.341V26.9613H148.383V30.5656H152.167V33.3054H148.383V37.7743C148.383 38.2159 148.387 38.6014 148.395 38.9308C148.402 39.2601 148.462 39.5558 148.574 39.8178C148.679 40.0798 148.862 40.2894 149.124 40.4466C149.394 40.5963 149.783 40.6712 150.292 40.6712C150.502 40.6712 150.775 40.6263 151.112 40.5364C151.456 40.4466 151.696 40.3643 151.83 40.2894H152.167V43.0628ZM160.285 38.7174L163.16 30.5656H167.314L160.308 47.8012H155.929L157.927 43.0853L153.021 30.5656H157.265L160.285 38.7174ZM183.596 31.7334C183.596 32.4819 183.465 33.2155 183.203 33.9341C182.941 34.6453 182.566 35.2441 182.08 35.7307C181.414 36.3894 180.669 36.8872 179.845 37.2241C179.029 37.5609 178.011 37.7293 176.791 37.7293H174.108V43.1751H169.796V26.456H176.892C177.955 26.456 178.85 26.5496 179.576 26.7367C180.309 26.9164 180.957 27.1896 181.518 27.5564C182.192 27.9981 182.705 28.5632 183.057 29.2519C183.416 29.9406 183.596 30.7677 183.596 31.7334ZM179.138 31.8344C179.138 31.3628 179.011 30.9586 178.756 30.6218C178.502 30.2774 178.206 30.0379 177.869 29.9031C177.42 29.7235 176.982 29.6262 176.555 29.6112C176.129 29.5888 175.56 29.5775 174.849 29.5775H174.108V34.5854H175.343C176.076 34.5854 176.679 34.5405 177.151 34.4506C177.63 34.3608 178.03 34.1812 178.352 33.9117C178.629 33.6721 178.827 33.3877 178.947 33.0583C179.074 32.7215 179.138 32.3135 179.138 31.8344ZM194.072 39.8852V37.2577C193.525 37.3027 192.934 37.3663 192.298 37.4486C191.661 37.5235 191.179 37.6133 190.849 37.7181C190.445 37.8454 190.134 38.0325 189.917 38.2795C189.708 38.5191 189.603 38.8372 189.603 39.2339C189.603 39.4959 189.625 39.7093 189.67 39.874C189.715 40.0386 189.827 40.1958 190.007 40.3456C190.179 40.4953 190.385 40.6076 190.625 40.6824C190.864 40.7498 191.238 40.7835 191.747 40.7835C192.152 40.7835 192.56 40.7011 192.971 40.5364C193.391 40.3718 193.757 40.1547 194.072 39.8852ZM194.072 41.8389C193.855 42.0036 193.585 42.202 193.263 42.434C192.941 42.6661 192.638 42.8495 192.354 42.9842C191.957 43.1639 191.545 43.2949 191.119 43.3772C190.692 43.467 190.224 43.512 189.715 43.512C188.517 43.512 187.514 43.1414 186.706 42.4004C185.897 41.6593 185.493 40.7123 185.493 39.5596C185.493 38.6388 185.699 37.8865 186.111 37.3027C186.522 36.7188 187.106 36.2584 187.862 35.9216C188.611 35.5847 189.539 35.3452 190.647 35.2029C191.755 35.0607 192.904 34.9559 194.094 34.8886V34.8212C194.094 34.125 193.81 33.6459 193.241 33.3839C192.672 33.1145 191.834 32.9797 190.726 32.9797C190.059 32.9797 189.348 33.0995 188.592 33.339C187.836 33.5711 187.293 33.7507 186.964 33.878H186.594V30.8351C187.02 30.7228 187.713 30.5918 188.671 30.4421C189.636 30.2849 190.602 30.2063 191.568 30.2063C193.866 30.2063 195.524 30.5619 196.542 31.273C197.567 31.9767 198.08 33.0845 198.08 34.5966V43.1751H194.072V41.8389ZM214.058 43.1751H210.016V41.8614C209.32 42.4303 208.669 42.8495 208.062 43.119C207.456 43.3884 206.756 43.5232 205.963 43.5232C204.428 43.5232 203.2 42.9318 202.28 41.7491C201.359 40.5664 200.899 38.9719 200.899 36.9658C200.899 35.8954 201.052 34.9484 201.359 34.125C201.673 33.2941 202.1 32.583 202.639 31.9916C203.148 31.4302 203.766 30.996 204.492 30.6891C205.218 30.3747 205.944 30.2175 206.67 30.2175C207.426 30.2175 208.044 30.2999 208.523 30.4646C209.009 30.6218 209.507 30.8239 210.016 31.0709V25.7037H214.058V43.1751ZM210.016 39.6943V33.5075C209.732 33.3877 209.432 33.3016 209.118 33.2492C208.803 33.1968 208.515 33.1706 208.253 33.1706C207.19 33.1706 206.393 33.5037 205.862 34.1699C205.33 34.8287 205.064 35.7457 205.064 36.9209C205.064 38.156 205.278 39.0543 205.704 39.6157C206.131 40.1696 206.816 40.4466 207.759 40.4466C208.126 40.4466 208.515 40.3792 208.927 40.2445C209.339 40.1023 209.702 39.9189 210.016 39.6943Z" fill="black"/>
<path d="M68.884 56.764H66.2864V63.1751H65.3196V56.764H62.7219V55.9046H68.884V56.764ZM75.4221 63.1751H74.4553V59.6155H70.8274V63.1751H69.8606V55.9046H70.8274V58.7562H74.4553V55.9046H75.4221V63.1751ZM82.1702 63.1751H77.3801V55.9046H82.1702V56.764H78.3469V58.7562H82.1702V59.6155H78.3469V62.3157H82.1702V63.1751ZM91.9797 58.1019C91.9797 58.4241 91.9228 58.7236 91.8088 59.0003C91.6982 59.2737 91.5419 59.5114 91.3401 59.7132C91.0894 59.9638 90.7932 60.1526 90.4514 60.2796C90.1096 60.4033 89.6783 60.4651 89.1575 60.4651H88.1907V63.1751H87.2239V55.9046H89.1965C89.6327 55.9046 90.0022 55.942 90.3049 56.0169C90.6077 56.0885 90.8762 56.2025 91.1106 56.3587C91.3873 56.5443 91.6005 56.7754 91.7502 57.0521C91.9032 57.3288 91.9797 57.6787 91.9797 58.1019ZM90.9739 58.1263C90.9739 57.8756 90.9299 57.6575 90.842 57.472C90.7542 57.2864 90.6207 57.1351 90.4417 57.0179C90.2854 56.917 90.1064 56.8454 89.9045 56.803C89.706 56.7575 89.4537 56.7347 89.1477 56.7347H88.1907V59.64H89.0061C89.3967 59.64 89.7141 59.6058 89.9583 59.5374C90.2024 59.4658 90.401 59.3535 90.554 59.2005C90.7069 59.0443 90.8144 58.8799 90.8762 58.7073C90.9413 58.5348 90.9739 58.3411 90.9739 58.1263ZM99.2747 63.1751H98.0198L95.5881 60.2845H94.2258V63.1751H93.259V55.9046H95.2952C95.7346 55.9046 96.1008 55.9339 96.3938 55.9925C96.6868 56.0478 96.9504 56.1487 97.1848 56.2952C97.4485 56.4612 97.6536 56.6712 97.8 56.9251C97.9498 57.1758 98.0247 57.4948 98.0247 57.8821C98.0247 58.4062 97.8928 58.8457 97.6292 59.2005C97.3655 59.5521 97.0025 59.8174 96.5403 59.9964L99.2747 63.1751ZM97.0139 57.9505C97.0139 57.7422 96.9765 57.5582 96.9016 57.3987C96.83 57.236 96.7096 57.0993 96.5403 56.9886C96.4003 56.8942 96.2343 56.8291 96.0422 56.7933C95.8502 56.7542 95.6239 56.7347 95.3635 56.7347H94.2258V59.4788H95.2024C95.5084 59.4788 95.7753 59.4528 96.0032 59.4007C96.231 59.3454 96.4247 59.2444 96.5842 59.098C96.7307 58.9612 96.8381 58.805 96.9065 58.6292C96.9781 58.4502 97.0139 58.2239 97.0139 57.9505ZM105.632 56.7396C105.928 57.0651 106.155 57.4638 106.311 57.9359C106.47 58.4079 106.55 58.9433 106.55 59.5423C106.55 60.1413 106.469 60.6784 106.306 61.1536C106.146 61.6256 105.922 62.0195 105.632 62.3353C105.333 62.664 104.978 62.9114 104.568 63.0775C104.161 63.2435 103.695 63.3265 103.171 63.3265C102.66 63.3265 102.195 63.2418 101.775 63.0726C101.358 62.9033 101.003 62.6575 100.71 62.3353C100.417 62.013 100.191 61.6175 100.031 61.1487C99.8752 60.68 99.7971 60.1445 99.7971 59.5423C99.7971 58.9498 99.8752 58.4193 100.031 57.9505C100.188 57.4785 100.416 57.0748 100.715 56.7396C101.002 56.4206 101.356 56.1764 101.78 56.0071C102.206 55.8379 102.67 55.7532 103.171 55.7532C103.692 55.7532 104.159 55.8395 104.573 56.012C104.989 56.1813 105.342 56.4238 105.632 56.7396ZM105.544 59.5423C105.544 58.5983 105.333 57.8707 104.909 57.3597C104.486 56.8454 103.908 56.5882 103.176 56.5882C102.437 56.5882 101.856 56.8454 101.433 57.3597C101.013 57.8707 100.803 58.5983 100.803 59.5423C100.803 60.4961 101.018 61.2269 101.448 61.7347C101.877 62.2392 102.453 62.4915 103.176 62.4915C103.899 62.4915 104.473 62.2392 104.9 61.7347C105.329 61.2269 105.544 60.4961 105.544 59.5423ZM117.331 63.1751H116.301L115.588 61.1487H112.444L111.731 63.1751H110.749L113.396 55.9046H114.685L117.331 63.1751ZM115.29 60.3187L114.016 56.7493L112.737 60.3187H115.29ZM124.499 62.638C124.102 62.8203 123.668 62.9798 123.196 63.1165C122.727 63.25 122.273 63.3167 121.833 63.3167C121.267 63.3167 120.748 63.2386 120.276 63.0823C119.804 62.9261 119.402 62.6917 119.07 62.3792C118.734 62.0635 118.476 61.6696 118.293 61.1976C118.111 60.7223 118.02 60.1673 118.02 59.5325C118.02 58.3704 118.358 57.4541 119.035 56.7835C119.716 56.1097 120.648 55.7728 121.833 55.7728C122.247 55.7728 122.668 55.8232 123.098 55.9241C123.531 56.0218 123.996 56.1894 124.494 56.4271V57.5745H124.406C124.306 57.4964 124.159 57.3939 123.967 57.2669C123.775 57.14 123.586 57.0342 123.401 56.9495C123.176 56.8486 122.92 56.7656 122.634 56.7005C122.351 56.6321 122.029 56.598 121.667 56.598C120.853 56.598 120.209 56.86 119.734 57.3841C119.262 57.9049 119.026 58.6113 119.026 59.5032C119.026 60.444 119.273 61.1764 119.768 61.7005C120.263 62.2213 120.936 62.4818 121.789 62.4818C122.102 62.4818 122.413 62.4508 122.722 62.389C123.034 62.3271 123.308 62.2474 123.542 62.1497V60.3675H121.594V59.5179H124.499V62.638ZM132.253 62.638C131.856 62.8203 131.421 62.9798 130.949 63.1165C130.481 63.25 130.027 63.3167 129.587 63.3167C129.021 63.3167 128.502 63.2386 128.03 63.0823C127.558 62.9261 127.156 62.6917 126.823 62.3792C126.488 62.0635 126.229 61.6696 126.047 61.1976C125.865 60.7223 125.774 60.1673 125.774 59.5325C125.774 58.3704 126.112 57.4541 126.789 56.7835C127.47 56.1097 128.402 55.7728 129.587 55.7728C130.001 55.7728 130.422 55.8232 130.852 55.9241C131.285 56.0218 131.75 56.1894 132.248 56.4271V57.5745H132.16C132.059 57.4964 131.913 57.3939 131.721 57.2669C131.529 57.14 131.34 57.0342 131.155 56.9495C130.93 56.8486 130.674 56.7656 130.388 56.7005C130.105 56.6321 129.782 56.598 129.421 56.598C128.607 56.598 127.963 56.86 127.488 57.3841C127.016 57.9049 126.78 58.6113 126.78 59.5032C126.78 60.444 127.027 61.1764 127.522 61.7005C128.017 62.2213 128.69 62.4818 129.543 62.4818C129.856 62.4818 130.167 62.4508 130.476 62.389C130.788 62.3271 131.062 62.2474 131.296 62.1497V60.3675H129.348V59.5179H132.253V62.638ZM139.958 63.1751H138.703L136.272 60.2845H134.909V63.1751H133.943V55.9046H135.979C136.418 55.9046 136.784 55.9339 137.077 55.9925C137.37 56.0478 137.634 56.1487 137.868 56.2952C138.132 56.4612 138.337 56.6712 138.484 56.9251C138.633 57.1758 138.708 57.4948 138.708 57.8821C138.708 58.4062 138.576 58.8457 138.313 59.2005C138.049 59.5521 137.686 59.8174 137.224 59.9964L139.958 63.1751ZM137.698 57.9505C137.698 57.7422 137.66 57.5582 137.585 57.3987C137.514 57.236 137.393 57.0993 137.224 56.9886C137.084 56.8942 136.918 56.8291 136.726 56.7933C136.534 56.7542 136.308 56.7347 136.047 56.7347H134.909V59.4788H135.886C136.192 59.4788 136.459 59.4528 136.687 59.4007C136.915 59.3454 137.108 59.2444 137.268 59.098C137.414 58.9612 137.522 58.805 137.59 58.6292C137.662 58.4502 137.698 58.2239 137.698 57.9505ZM145.686 63.1751H140.896V55.9046H145.686V56.764H141.863V58.7562H145.686V59.6155H141.863V62.3157H145.686V63.1751ZM153.288 62.638C152.891 62.8203 152.457 62.9798 151.985 63.1165C151.516 63.25 151.062 63.3167 150.622 63.3167C150.056 63.3167 149.537 63.2386 149.065 63.0823C148.593 62.9261 148.191 62.6917 147.859 62.3792C147.523 62.0635 147.265 61.6696 147.082 61.1976C146.9 60.7223 146.809 60.1673 146.809 59.5325C146.809 58.3704 147.147 57.4541 147.824 56.7835C148.505 56.1097 149.437 55.7728 150.622 55.7728C151.036 55.7728 151.457 55.8232 151.887 55.9241C152.32 56.0218 152.785 56.1894 153.283 56.4271V57.5745H153.196C153.095 57.4964 152.948 57.3939 152.756 57.2669C152.564 57.14 152.375 57.0342 152.19 56.9495C151.965 56.8486 151.71 56.7656 151.423 56.7005C151.14 56.6321 150.818 56.598 150.456 56.598C149.642 56.598 148.998 56.86 148.523 57.3841C148.051 57.9049 147.815 58.6113 147.815 59.5032C147.815 60.444 148.062 61.1764 148.557 61.7005C149.052 62.2213 149.726 62.4818 150.578 62.4818C150.891 62.4818 151.202 62.4508 151.511 62.389C151.823 62.3271 152.097 62.2474 152.331 62.1497V60.3675H150.383V59.5179H153.288V62.638ZM160.71 63.1751H159.68L158.967 61.1487H155.823L155.11 63.1751H154.128L156.775 55.9046H158.064L160.71 63.1751ZM158.669 60.3187L157.395 56.7493L156.115 60.3187H158.669ZM166.413 56.764H163.816V63.1751H162.849V56.764H160.251V55.9046H166.413V56.764ZM172.566 56.7396C172.862 57.0651 173.088 57.4638 173.244 57.9359C173.404 58.4079 173.484 58.9433 173.484 59.5423C173.484 60.1413 173.402 60.6784 173.24 61.1536C173.08 61.6256 172.855 62.0195 172.566 62.3353C172.266 62.664 171.911 62.9114 171.501 63.0775C171.094 63.2435 170.629 63.3265 170.105 63.3265C169.594 63.3265 169.128 63.2418 168.708 63.0726C168.292 62.9033 167.937 62.6575 167.644 62.3353C167.351 62.013 167.125 61.6175 166.965 61.1487C166.809 60.68 166.731 60.1445 166.731 59.5423C166.731 58.9498 166.809 58.4193 166.965 57.9505C167.121 57.4785 167.349 57.0748 167.649 56.7396C167.935 56.4206 168.29 56.1764 168.713 56.0071C169.14 55.8379 169.603 55.7532 170.105 55.7532C170.626 55.7532 171.093 55.8395 171.506 56.012C171.923 56.1813 172.276 56.4238 172.566 56.7396ZM172.478 59.5423C172.478 58.5983 172.266 57.8707 171.843 57.3597C171.42 56.8454 170.842 56.5882 170.11 56.5882C169.371 56.5882 168.79 56.8454 168.366 57.3597C167.947 57.8707 167.737 58.5983 167.737 59.5423C167.737 60.4961 167.951 61.2269 168.381 61.7347C168.811 62.2392 169.387 62.4915 170.11 62.4915C170.832 62.4915 171.407 62.2392 171.833 61.7347C172.263 61.2269 172.478 60.4961 172.478 59.5423ZM181.032 63.1751H179.778L177.346 60.2845H175.984V63.1751H175.017V55.9046H177.053C177.492 55.9046 177.859 55.9339 178.152 55.9925C178.445 56.0478 178.708 56.1487 178.943 56.2952C179.206 56.4612 179.411 56.6712 179.558 56.9251C179.708 57.1758 179.782 57.4948 179.782 57.8821C179.782 58.4062 179.651 58.8457 179.387 59.2005C179.123 59.5521 178.76 59.8174 178.298 59.9964L181.032 63.1751ZM178.772 57.9505C178.772 57.7422 178.734 57.5582 178.659 57.3987C178.588 57.236 178.467 57.0993 178.298 56.9886C178.158 56.8942 177.992 56.8291 177.8 56.7933C177.608 56.7542 177.382 56.7347 177.121 56.7347H175.984V59.4788H176.96C177.266 59.4788 177.533 59.4528 177.761 59.4007C177.989 59.3454 178.183 59.2444 178.342 59.098C178.489 58.9612 178.596 58.805 178.664 58.6292C178.736 58.4502 178.772 58.2239 178.772 57.9505Z" fill="black"/>
</svg>
