<svg width="143" height="30" viewBox="0 0 143 30" fill="none" xmlns="http://www.w3.org/2000/svg">
<g clip-path="url(#clip0_97_541)">
<path fill-rule="evenodd" clip-rule="evenodd" d="M0 4.57817V25.779C0 25.9284 0.114516 26.1414 0.220452 26.2405C0.349427 26.3614 0.535466 26.4313 0.711674 26.4313H6.22683C6.44796 26.4313 6.6635 26.2945 6.76172 26.1656C6.94949 25.9191 6.90882 25.8931 6.90882 25.4825V13.9481H6.99779C7.03962 14.1049 7.37045 14.3553 7.49074 14.4929C7.49479 14.4975 7.50048 14.5042 7.50453 14.5088L9.09869 16.2356C9.24569 16.4199 9.43934 16.5702 9.59087 16.7515L10.2374 17.4394C10.2908 17.4924 10.3169 17.5174 10.3673 17.5764L10.6746 17.9214C10.6786 17.9261 10.6841 17.9329 10.688 17.9376C10.692 17.9424 10.6976 17.9491 10.7015 17.9537L14.4834 22.0888C14.9915 22.6965 15.1788 22.6174 15.6632 22.1685C15.8644 21.9822 16.0963 21.8123 16.2923 21.6115C16.2965 21.6072 16.3023 21.6005 16.3066 21.5962C16.4788 21.4226 16.6855 21.2886 16.8612 21.1128C17.3036 20.6703 17.8096 20.2767 18.2579 19.8409L18.368 19.7434C18.3727 19.7394 18.3796 19.7339 18.3843 19.73L19.0398 19.1401C19.0459 19.1341 19.0645 19.1177 19.0709 19.1119C19.1123 19.0738 19.1357 19.0487 19.1779 19.0114C19.2368 18.9593 19.2519 18.9588 19.3106 18.9069L21.8013 16.6534C21.8431 16.6114 21.864 16.59 21.9075 16.552C21.9121 16.5479 21.9188 16.5423 21.9236 16.5384L22.2766 16.2391C22.3596 16.1587 22.3943 16.0649 22.5355 16.0531C22.5355 16.8037 22.5767 17.5766 22.5224 18.3244C22.5072 18.5321 22.752 18.5708 22.9378 18.6456L26.1909 19.9587C26.5684 20.1103 26.923 20.2373 27.2898 20.4018C27.4695 20.4823 27.6573 20.5572 27.8396 20.6229C28.1409 20.7313 29.2872 21.2717 29.5036 21.2717C29.5719 21.2717 29.5925 21.2511 29.5925 21.1827V7.69129C29.5925 7.55895 29.4928 7.43576 29.3997 7.38014C29.2915 7.31546 29.1277 7.30582 28.9698 7.30582H23.0989C22.3995 7.30582 22.4037 7.19872 21.8307 7.69814L21.5704 7.94192C21.0756 8.35564 20.6257 8.8137 20.1389 9.23841L20.1068 9.26559C20.1021 9.26955 20.0955 9.27514 20.0907 9.27909L16.9384 12.1163C16.9089 12.1437 16.9027 12.148 16.8749 12.1715L16.3607 12.6358C16.2727 12.7147 16.2249 12.74 16.1381 12.8283L15.9706 12.987C15.8038 13.1447 15.6211 13.3369 15.4192 13.4438L14.6351 12.6266C14.6038 12.5917 14.5975 12.5815 14.566 12.5475L12.4057 10.2305C12.4017 10.2259 12.396 10.2191 12.3921 10.2144L12.2973 10.1015C12.2009 9.99375 12.105 9.90642 12.0018 9.80395L11.791 9.57001C11.499 9.22848 11.1391 8.91858 10.8523 8.5813C10.8106 8.53233 10.777 8.47835 10.734 8.43266L9.80429 7.43508C9.77219 7.39749 9.76708 7.39151 9.73382 7.35729L8.00905 5.52379C7.82562 5.30623 7.62483 5.11701 7.44033 4.90648C7.43628 4.90186 7.4305 4.8953 7.42645 4.89068L7.29699 4.75331C6.82351 4.28532 6.69781 4.01436 5.9604 4.01436C4.99984 4.01436 1.31905 3.96848 0.646994 4.03827C0.433193 4.06044 0.25178 4.11384 0.137554 4.29978C0.110949 4.34306 0.000481968 4.54424 0.000481968 4.57778L0 4.57817Z" fill="#2063F1"/>
</g>
<path d="M56.7322 7.96V22H53.3122V13.58L50.1722 22H47.4122L44.2522 13.56V22H40.8322V7.96H44.8722L48.8122 17.68L52.7122 7.96H56.7322ZM60.9115 9.68C60.3115 9.68 59.8182 9.50667 59.4315 9.16C59.0582 8.8 58.8715 8.36 58.8715 7.84C58.8715 7.30667 59.0582 6.86667 59.4315 6.52C59.8182 6.16 60.3115 5.98 60.9115 5.98C61.4982 5.98 61.9782 6.16 62.3515 6.52C62.7382 6.86667 62.9315 7.30667 62.9315 7.84C62.9315 8.36 62.7382 8.8 62.3515 9.16C61.9782 9.50667 61.4982 9.68 60.9115 9.68ZM62.6115 10.84V22H59.1915V10.84H62.6115ZM71.89 10.72C73.1966 10.72 74.2366 11.1467 75.01 12C75.7966 12.84 76.19 14 76.19 15.48V22H72.79V15.94C72.79 15.1933 72.5966 14.6133 72.21 14.2C71.8233 13.7867 71.3033 13.58 70.65 13.58C69.9966 13.58 69.4766 13.7867 69.09 14.2C68.7033 14.6133 68.51 15.1933 68.51 15.94V22H65.09V10.84H68.51V12.32C68.8566 11.8267 69.3233 11.44 69.91 11.16C70.4966 10.8667 71.1566 10.72 71.89 10.72ZM84.7865 19.1V22H83.0465C81.8065 22 80.8399 21.7 80.1465 21.1C79.4532 20.4867 79.1065 19.4933 79.1065 18.12V13.68H77.7465V10.84H79.1065V8.12H82.5265V10.84H84.7665V13.68H82.5265V18.16C82.5265 18.4933 82.6065 18.7333 82.7665 18.88C82.9265 19.0267 83.1932 19.1 83.5665 19.1H84.7865ZM98.0915 10.84L91.0915 27.3H87.4115L89.9715 21.62L85.4315 10.84H89.2515L91.8315 17.82L94.3915 10.84H98.0915ZM102.748 12.42C103.082 11.9 103.542 11.48 104.128 11.16C104.715 10.84 105.402 10.68 106.188 10.68C107.108 10.68 107.942 10.9133 108.688 11.38C109.435 11.8467 110.022 12.5133 110.448 13.38C110.888 14.2467 111.108 15.2533 111.108 16.4C111.108 17.5467 110.888 18.56 110.448 19.44C110.022 20.3067 109.435 20.98 108.688 21.46C107.942 21.9267 107.108 22.16 106.188 22.16C105.415 22.16 104.728 22 104.128 21.68C103.542 21.36 103.082 20.9467 102.748 20.44V27.32H99.3282V10.84H102.748V12.42ZM107.628 16.4C107.628 15.5467 107.388 14.88 106.908 14.4C106.442 13.9067 105.862 13.66 105.168 13.66C104.488 13.66 103.908 13.9067 103.428 14.4C102.962 14.8933 102.728 15.5667 102.728 16.42C102.728 17.2733 102.962 17.9467 103.428 18.44C103.908 18.9333 104.488 19.18 105.168 19.18C105.848 19.18 106.428 18.9333 106.908 18.44C107.388 17.9333 107.628 17.2533 107.628 16.4ZM116.322 7.2V22H112.902V7.2H116.322ZM129.321 16.24C129.321 16.56 129.301 16.8933 129.261 17.24H121.521C121.574 17.9333 121.794 18.4667 122.181 18.84C122.581 19.2 123.068 19.38 123.641 19.38C124.494 19.38 125.088 19.02 125.421 18.3H129.061C128.874 19.0333 128.534 19.6933 128.041 20.28C127.561 20.8667 126.954 21.3267 126.221 21.66C125.488 21.9933 124.668 22.16 123.761 22.16C122.668 22.16 121.694 21.9267 120.841 21.46C119.988 20.9933 119.321 20.3267 118.841 19.46C118.361 18.5933 118.121 17.58 118.121 16.42C118.121 15.26 118.354 14.2467 118.821 13.38C119.301 12.5133 119.968 11.8467 120.821 11.38C121.674 10.9133 122.654 10.68 123.761 10.68C124.841 10.68 125.801 10.9067 126.641 11.36C127.481 11.8133 128.134 12.46 128.601 13.3C129.081 14.14 129.321 15.12 129.321 16.24ZM125.821 15.34C125.821 14.7533 125.621 14.2867 125.221 13.94C124.821 13.5933 124.321 13.42 123.721 13.42C123.148 13.42 122.661 13.5867 122.261 13.92C121.874 14.2533 121.634 14.7267 121.541 15.34H125.821ZM137.725 22L135.585 18.9L133.785 22H130.085L133.765 16.3L129.985 10.84H133.825L135.965 13.92L137.765 10.84H141.465L137.725 16.46L141.565 22H137.725Z" fill="#2063F1"/>
<defs>
<clipPath id="clip0_97_541">
<rect width="29.5922" height="22.4313" fill="white" transform="translate(0 4)"/>
</clipPath>
</defs>
</svg>
