<svg width="48" height="79" viewBox="0 0 48 79" fill="none" xmlns="http://www.w3.org/2000/svg">
<circle cx="3.19149" cy="3.19149" r="3.19149" fill="#040429"/>
<circle cx="13.5745" cy="3.19149" r="3.19149" fill="#040429"/>
<circle cx="23.9574" cy="3.19149" r="3.19149" fill="#040429"/>
<circle cx="34.3404" cy="3.19149" r="3.19149" fill="#040429"/>
<circle cx="44.7234" cy="3.19149" r="3.19149" fill="#040429"/>
<circle cx="3.19149" cy="12.1277" r="3.19149" fill="#040429"/>
<circle cx="3.19149" cy="21.0638" r="3.19149" fill="#040429"/>
<circle cx="3.19149" cy="30" r="3.19149" fill="#040429"/>
<circle cx="3.19149" cy="38.9362" r="3.19149" fill="#040429"/>
<circle cx="3.19149" cy="47.8723" r="3.19149" fill="#040429"/>
<circle cx="3.19149" cy="56.8085" r="3.19149" fill="#040429"/>
<circle cx="3.19149" cy="66.1915" r="3.19149" fill="#040429"/>
<circle cx="3.19149" cy="75.5745" r="3.19149" fill="#040429"/>
<circle cx="13.5745" cy="12.1277" r="3.19149" fill="#040429"/>
<circle cx="13.5745" cy="21.0638" r="3.19149" fill="#040429"/>
<circle cx="13.5745" cy="56.8085" r="3.19149" fill="#040429"/>
<circle cx="13.5745" cy="38.9362" r="3.19149" fill="#040429"/>
<circle cx="13.5745" cy="30" r="3.19149" fill="#040429"/>
<circle cx="13.5745" cy="47.8723" r="3.19149" fill="#040429"/>
<circle cx="23.9574" cy="56.8085" r="3.19149" fill="#040429"/>
<circle cx="13.5745" cy="66.1915" r="3.19149" fill="#040429"/>
<circle cx="13.5745" cy="75.5745" r="3.19149" fill="#040429"/>
<circle cx="23.9574" cy="12.1277" r="3.19149" fill="#040429"/>
<circle cx="23.9574" cy="38.9362" r="3.19149" fill="#040429"/>
<circle cx="23.9574" cy="21.0638" r="3.19149" fill="#040429"/>
<circle cx="34.3404" cy="56.8085" r="3.19149" fill="#040429"/>
<circle cx="23.9574" cy="30" r="3.19149" fill="#040429"/>
<circle cx="23.9574" cy="47.8723" r="3.19149" fill="#040429"/>
<circle cx="23.9574" cy="66.1915" r="3.19149" fill="#040429"/>
<circle cx="23.9574" cy="75.5745" r="3.19149" fill="#040429"/>
<circle cx="44.7234" cy="56.8085" r="3.19149" fill="#040429"/>
<circle cx="34.3404" cy="38.9362" r="3.19149" fill="#040429"/>
<circle cx="34.3404" cy="12.1277" r="3.19149" fill="#040429"/>
<circle cx="34.3404" cy="21.0638" r="3.19149" fill="#040429"/>
<circle cx="34.3404" cy="30" r="3.19149" fill="#040429"/>
<circle cx="44.7234" cy="38.9362" r="3.19149" fill="#040429"/>
<circle cx="34.3404" cy="66.1915" r="3.19149" fill="#040429"/>
<circle cx="34.3404" cy="75.5745" r="3.19149" fill="#040429"/>
<circle cx="34.3404" cy="47.8723" r="3.19149" fill="#040429"/>
<circle cx="44.7234" cy="12.1277" r="3.19149" fill="#040429"/>
<circle cx="44.7234" cy="21.0638" r="3.19149" fill="#040429"/>
<circle cx="44.7234" cy="30" r="3.19149" fill="#040429"/>
<circle cx="44.7234" cy="47.8723" r="3.19149" fill="#040429"/>
<circle cx="44.7234" cy="66.1915" r="3.19149" fill="#040429"/>
<circle cx="44.7234" cy="75.5745" r="3.19149" fill="#040429"/>
</svg>
