<svg width="213" height="85" viewBox="0 0 213 85" fill="none" xmlns="http://www.w3.org/2000/svg">
<path fill-rule="evenodd" clip-rule="evenodd" d="M29.5525 84.2552L52.7219 70.8793L29.1074 57.2649L23.1658 53.8425C23.1658 43.0061 23.1658 32.1695 23.1658 21.333L0 34.6772V40.4985V61.4113V67.2327L23.1658 80.5768L29.5525 84.2556V84.2552Z" fill="#040429"/>
<path fill-rule="evenodd" clip-rule="evenodd" d="M29.556 44.6445V50.7089L52.722 64.0531V37.3189V31.3005V13.3441C23.1737 -3.67682 57.847 16.296 29.556 0V23.9747V44.6445V44.6445Z" fill="#040429"/>
<path d="M80.6537 34.6573C80.6537 36.2143 80.2981 37.6104 79.587 38.8455C78.8759 40.0731 77.9776 41.0163 76.8922 41.675C76.0763 42.1691 75.1817 42.5134 74.2086 42.7081C73.2355 42.9027 72.0827 43 70.7503 43H64.8553V26.2809H70.9187C72.2811 26.2809 73.4563 26.3969 74.4444 26.629C75.4325 26.8536 76.2634 27.1754 76.9371 27.5946C78.0899 28.2983 78.9956 29.249 79.6544 30.4467C80.3206 31.6369 80.6537 33.0404 80.6537 34.6573ZM76.196 34.6236C76.196 33.5232 75.9939 32.5838 75.5897 31.8053C75.193 31.0193 74.5604 30.4055 73.6921 29.9638C73.2504 29.7468 72.7976 29.6008 72.3335 29.5259C71.8768 29.4436 71.1844 29.4024 70.2562 29.4024H69.1671V39.8673H70.2562C71.2817 39.8673 72.034 39.8224 72.5131 39.7325C72.9922 39.6352 73.46 39.4631 73.9167 39.216C74.7027 38.7669 75.279 38.168 75.6458 37.4195C76.0126 36.6634 76.196 35.7315 76.196 34.6236ZM89.4119 38.5423L92.2863 30.3905H96.4408L89.4343 47.6261H85.0552L87.0539 42.9102L82.1471 30.3905H86.3914L89.4119 38.5423ZM111.363 43H107.299V36.7458C107.299 36.2368 107.272 35.7315 107.22 35.23C107.168 34.7209 107.078 34.3466 106.951 34.1071C106.801 33.8301 106.58 33.628 106.288 33.5008C106.004 33.3735 105.603 33.3099 105.087 33.3099C104.72 33.3099 104.346 33.3698 103.964 33.4895C103.59 33.6093 103.182 33.8002 102.74 34.0622V43H98.6977V30.3905H102.74V31.7828C103.459 31.2214 104.147 30.791 104.806 30.4916C105.472 30.1921 106.21 30.0424 107.018 30.0424C108.38 30.0424 109.443 30.4392 110.207 31.2326C110.978 32.0261 111.363 33.2126 111.363 34.792V43ZM122.727 39.7101V37.0826C122.18 37.1275 121.589 37.1912 120.952 37.2735C120.316 37.3484 119.833 37.4382 119.504 37.543C119.1 37.6703 118.789 37.8574 118.572 38.1044C118.362 38.344 118.258 38.6621 118.258 39.0588C118.258 39.3208 118.28 39.5342 118.325 39.6989C118.37 39.8635 118.482 40.0207 118.662 40.1704C118.834 40.3202 119.04 40.4324 119.279 40.5073C119.519 40.5747 119.893 40.6084 120.402 40.6084C120.806 40.6084 121.214 40.526 121.626 40.3613C122.045 40.1966 122.412 39.9796 122.727 39.7101ZM122.727 41.6638C122.509 41.8285 122.24 42.0269 121.918 42.2589C121.596 42.491 121.293 42.6744 121.009 42.8091C120.612 42.9888 120.2 43.1198 119.773 43.2021C119.347 43.2919 118.879 43.3369 118.37 43.3369C117.172 43.3369 116.169 42.9663 115.361 42.2252C114.552 41.4842 114.148 40.5372 114.148 39.3845C114.148 38.4637 114.354 37.7114 114.766 37.1275C115.177 36.5437 115.761 36.0833 116.517 35.7465C117.266 35.4096 118.194 35.1701 119.302 35.0278C120.41 34.8856 121.559 34.7808 122.749 34.7134V34.6461C122.749 33.9499 122.465 33.4708 121.896 33.2088C121.327 32.9394 120.488 32.8046 119.38 32.8046C118.714 32.8046 118.003 32.9244 117.247 33.1639C116.491 33.396 115.948 33.5756 115.619 33.7029H115.248V30.66C115.675 30.5477 116.367 30.4167 117.326 30.267C118.291 30.1098 119.257 30.0312 120.223 30.0312C122.521 30.0312 124.179 30.3868 125.197 31.0979C126.222 31.8015 126.735 32.9094 126.735 34.4215V43H122.727V41.6638ZM141.411 39.0027C141.411 40.3052 140.827 41.3569 139.659 42.1579C138.491 42.9513 136.893 43.3481 134.864 43.3481C133.742 43.3481 132.724 43.2433 131.81 43.0337C130.897 42.8241 130.163 42.592 129.61 42.3375V39.0139H129.98C130.182 39.1561 130.414 39.3133 130.676 39.4855C130.946 39.6502 131.324 39.8298 131.81 40.0245C132.229 40.1966 132.705 40.3464 133.236 40.4736C133.768 40.5934 134.337 40.6533 134.943 40.6533C135.736 40.6533 136.324 40.5672 136.706 40.395C137.088 40.2154 137.279 39.9534 137.279 39.609C137.279 39.3021 137.166 39.0813 136.942 38.9465C136.717 38.8043 136.29 38.6696 135.662 38.5423C135.362 38.475 134.954 38.4038 134.438 38.329C133.929 38.2466 133.465 38.1493 133.045 38.037C131.9 37.7376 131.05 37.2735 130.497 36.6447C129.943 36.0085 129.666 35.2187 129.666 34.2755C129.666 33.0629 130.238 32.0561 131.384 31.2551C132.536 30.4467 134.108 30.0424 136.1 30.0424C137.043 30.0424 137.945 30.1397 138.806 30.3344C139.674 30.5215 140.351 30.7236 140.838 30.9407V34.1296H140.49C139.891 33.7179 139.206 33.3848 138.435 33.1302C137.671 32.8682 136.897 32.7372 136.111 32.7372C135.46 32.7372 134.909 32.8271 134.46 33.0067C134.019 33.1864 133.798 33.4409 133.798 33.7703C133.798 34.0697 133.899 34.298 134.101 34.4552C134.303 34.6124 134.778 34.7696 135.527 34.9268C135.939 35.0091 136.38 35.0915 136.852 35.1738C137.331 35.2487 137.81 35.346 138.289 35.4657C139.352 35.7427 140.138 36.1806 140.647 36.7795C141.156 37.3708 141.411 38.1119 141.411 39.0027ZM152.167 42.8877C151.733 43 151.273 43.0861 150.786 43.146C150.3 43.2133 149.705 43.247 149.001 43.247C147.429 43.247 146.257 42.9289 145.486 42.2926C144.723 41.6563 144.341 40.5672 144.341 39.0251V33.1302H142.679V30.3905H144.341V26.7862H148.383V30.3905H152.167V33.1302H148.383V37.5991C148.383 38.0408 148.387 38.4263 148.395 38.7557C148.402 39.085 148.462 39.3807 148.574 39.6427C148.679 39.9047 148.862 40.1143 149.124 40.2715C149.394 40.4212 149.783 40.4961 150.292 40.4961C150.502 40.4961 150.775 40.4512 151.112 40.3613C151.456 40.2715 151.696 40.1892 151.831 40.1143H152.167V42.8877ZM160.285 38.5423L163.16 30.3905H167.314L160.308 47.6261H155.929L157.928 42.9102L153.021 30.3905H157.265L160.285 38.5423ZM183.596 31.5583C183.596 32.3068 183.465 33.0404 183.203 33.759C182.941 34.4702 182.566 35.069 182.08 35.5556C181.414 36.2143 180.669 36.7121 179.845 37.049C179.029 37.3858 178.011 37.5542 176.791 37.5542H174.108V43H169.796V26.2809H176.892C177.955 26.2809 178.85 26.3745 179.576 26.5616C180.309 26.7413 180.957 27.0145 181.518 27.3813C182.192 27.823 182.705 28.3881 183.057 29.0768C183.416 29.7655 183.596 30.5926 183.596 31.5583ZM179.138 31.6593C179.138 31.1877 179.011 30.7835 178.756 30.4467C178.502 30.1023 178.206 29.8628 177.869 29.728C177.42 29.5484 176.982 29.4511 176.555 29.4361C176.129 29.4136 175.56 29.4024 174.849 29.4024H174.108V34.4103H175.343C176.076 34.4103 176.679 34.3654 177.151 34.2755C177.63 34.1857 178.03 34.0061 178.352 33.7366C178.629 33.497 178.827 33.2126 178.947 32.8832C179.074 32.5464 179.138 32.1384 179.138 31.6593ZM195.576 34.2419H195.217C195.045 34.182 194.768 34.1371 194.386 34.1071C194.004 34.0772 193.686 34.0622 193.432 34.0622C192.855 34.0622 192.346 34.0996 191.905 34.1745C191.463 34.2493 190.988 34.3766 190.479 34.5562V43H186.436V30.3905H190.479V32.2432C191.369 31.4797 192.144 30.9744 192.803 30.7274C193.462 30.4729 194.068 30.3456 194.622 30.3456C194.764 30.3456 194.925 30.3493 195.105 30.3568C195.284 30.3643 195.442 30.3755 195.576 30.3905V34.2419ZM210.757 36.7009C210.757 38.7744 210.151 40.41 208.938 41.6077C207.733 42.7979 206.037 43.393 203.852 43.393C201.666 43.393 199.967 42.7979 198.754 41.6077C197.549 40.41 196.946 38.7744 196.946 36.7009C196.946 34.6124 197.553 32.973 198.765 31.7828C199.985 30.5926 201.681 29.9975 203.852 29.9975C206.052 29.9975 207.752 30.5964 208.949 31.7941C210.155 32.9918 210.757 34.6274 210.757 36.7009ZM205.783 39.7662C206.045 39.4443 206.24 39.0588 206.367 38.6097C206.502 38.1531 206.569 37.5243 206.569 36.7233C206.569 35.9823 206.502 35.3609 206.367 34.8594C206.232 34.3579 206.045 33.9574 205.805 33.658C205.566 33.3511 205.278 33.134 204.941 33.0067C204.604 32.8795 204.241 32.8158 203.852 32.8158C203.462 32.8158 203.114 32.8682 202.807 32.973C202.508 33.0778 202.22 33.2874 201.943 33.6018C201.696 33.8938 201.497 34.2943 201.348 34.8033C201.206 35.3123 201.134 35.9523 201.134 36.7233C201.134 37.412 201.198 38.0108 201.325 38.5199C201.453 39.0214 201.64 39.4256 201.887 39.7325C202.126 40.0245 202.411 40.2378 202.74 40.3726C203.077 40.5073 203.459 40.5747 203.885 40.5747C204.252 40.5747 204.6 40.5148 204.93 40.395C205.266 40.2678 205.551 40.0582 205.783 39.7662Z" fill="black"/>
<path d="M68.8841 56.5889H66.2864V63H65.3196V56.5889H62.722V55.7295H68.8841V56.5889ZM75.4221 63H74.4554V59.4404H70.8274V63H69.8606V55.7295H70.8274V58.5811H74.4554V55.7295H75.4221V63ZM82.1702 63H77.3802V55.7295H82.1702V56.5889H78.347V58.5811H82.1702V59.4404H78.347V62.1406H82.1702V63ZM91.9798 57.9268C91.9798 58.249 91.9228 58.5485 91.8089 58.8252C91.6982 59.0986 91.5419 59.3363 91.3401 59.5381C91.0895 59.7887 90.7932 59.9775 90.4514 60.1045C90.1096 60.2282 89.6783 60.29 89.1575 60.29H88.1907V63H87.2239V55.7295H89.1966C89.6328 55.7295 90.0022 55.7669 90.305 55.8418C90.6077 55.9134 90.8763 56.0273 91.1106 56.1836C91.3873 56.3691 91.6005 56.6003 91.7503 56.877C91.9033 57.1536 91.9798 57.5036 91.9798 57.9268ZM90.9739 57.9512C90.9739 57.7005 90.93 57.4824 90.8421 57.2969C90.7542 57.1113 90.6207 56.96 90.4417 56.8428C90.2854 56.7419 90.1064 56.6702 89.9046 56.6279C89.706 56.5824 89.4537 56.5596 89.1477 56.5596H88.1907V59.4648H89.0061C89.3968 59.4648 89.7141 59.4307 89.9583 59.3623C90.2024 59.2907 90.401 59.1784 90.554 59.0254C90.707 58.8691 90.8144 58.7048 90.8763 58.5322C90.9414 58.3597 90.9739 58.166 90.9739 57.9512ZM99.2747 63H98.0198L95.5882 60.1094H94.2259V63H93.2591V55.7295H95.2952C95.7346 55.7295 96.1009 55.7588 96.3938 55.8174C96.6868 55.8727 96.9505 55.9736 97.1848 56.1201C97.4485 56.2861 97.6536 56.4961 97.8001 56.75C97.9498 57.0007 98.0247 57.3197 98.0247 57.707C98.0247 58.2311 97.8929 58.6706 97.6292 59.0254C97.3655 59.377 97.0026 59.6423 96.5403 59.8213L99.2747 63ZM97.0139 57.7754C97.0139 57.5671 96.9765 57.3831 96.9016 57.2236C96.83 57.0609 96.7096 56.9242 96.5403 56.8135C96.4003 56.7191 96.2343 56.654 96.0423 56.6182C95.8502 56.5791 95.624 56.5596 95.3636 56.5596H94.2259V59.3037H95.2024C95.5084 59.3037 95.7753 59.2777 96.0032 59.2256C96.2311 59.1702 96.4248 59.0693 96.5843 58.9229C96.7307 58.7861 96.8382 58.6299 96.9065 58.4541C96.9781 58.2751 97.0139 58.0488 97.0139 57.7754ZM105.632 56.5645C105.928 56.89 106.155 57.2887 106.311 57.7607C106.47 58.2327 106.55 58.7682 106.55 59.3672C106.55 59.9661 106.469 60.5033 106.306 60.9785C106.146 61.4505 105.922 61.8444 105.632 62.1602C105.333 62.4889 104.978 62.7363 104.568 62.9023C104.161 63.0684 103.695 63.1514 103.171 63.1514C102.66 63.1514 102.195 63.0667 101.775 62.8975C101.358 62.7282 101.003 62.4824 100.71 62.1602C100.417 61.8379 100.191 61.4424 100.032 60.9736C99.8753 60.5049 99.7971 59.9694 99.7971 59.3672C99.7971 58.7747 99.8753 58.2441 100.032 57.7754C100.188 57.3034 100.416 56.8997 100.715 56.5645C101.002 56.2454 101.356 56.0013 101.78 55.832C102.206 55.6628 102.67 55.5781 103.171 55.5781C103.692 55.5781 104.159 55.6644 104.573 55.8369C104.989 56.0062 105.342 56.2487 105.632 56.5645ZM105.544 59.3672C105.544 58.4232 105.333 57.6956 104.909 57.1846C104.486 56.6702 103.908 56.4131 103.176 56.4131C102.437 56.4131 101.856 56.6702 101.433 57.1846C101.013 57.6956 100.803 58.4232 100.803 59.3672C100.803 60.321 101.018 61.0518 101.448 61.5596C101.877 62.0641 102.453 62.3164 103.176 62.3164C103.899 62.3164 104.473 62.0641 104.9 61.5596C105.329 61.0518 105.544 60.321 105.544 59.3672ZM117.331 63H116.301L115.588 60.9736H112.444L111.731 63H110.749L113.396 55.7295H114.685L117.331 63ZM115.29 60.1436L114.016 56.5742L112.737 60.1436H115.29ZM124.499 62.4629C124.102 62.6452 123.668 62.8047 123.196 62.9414C122.727 63.0749 122.273 63.1416 121.833 63.1416C121.267 63.1416 120.748 63.0635 120.276 62.9072C119.804 62.751 119.402 62.5166 119.07 62.2041C118.734 61.8883 118.476 61.4945 118.293 61.0225C118.111 60.5472 118.02 59.9922 118.02 59.3574C118.02 58.1953 118.358 57.279 119.035 56.6084C119.716 55.9346 120.648 55.5977 121.833 55.5977C122.247 55.5977 122.668 55.6481 123.098 55.749C123.531 55.8467 123.996 56.0143 124.494 56.252V57.3994H124.407C124.306 57.3213 124.159 57.2188 123.967 57.0918C123.775 56.9648 123.586 56.859 123.401 56.7744C123.176 56.6735 122.921 56.5905 122.634 56.5254C122.351 56.457 122.029 56.4229 121.667 56.4229C120.853 56.4229 120.209 56.6849 119.734 57.209C119.262 57.7298 119.026 58.4362 119.026 59.3281C119.026 60.2689 119.273 61.0013 119.768 61.5254C120.263 62.0462 120.936 62.3066 121.789 62.3066C122.102 62.3066 122.413 62.2757 122.722 62.2139C123.034 62.152 123.308 62.0723 123.542 61.9746V60.1924H121.594V59.3428H124.499V62.4629ZM132.253 62.4629C131.856 62.6452 131.421 62.8047 130.949 62.9414C130.481 63.0749 130.027 63.1416 129.587 63.1416C129.021 63.1416 128.502 63.0635 128.03 62.9072C127.558 62.751 127.156 62.5166 126.824 62.2041C126.488 61.8883 126.229 61.4945 126.047 61.0225C125.865 60.5472 125.774 59.9922 125.774 59.3574C125.774 58.1953 126.112 57.279 126.789 56.6084C127.47 55.9346 128.402 55.5977 129.587 55.5977C130.001 55.5977 130.422 55.6481 130.852 55.749C131.285 55.8467 131.75 56.0143 132.248 56.252V57.3994H132.16C132.06 57.3213 131.913 57.2188 131.721 57.0918C131.529 56.9648 131.34 56.859 131.155 56.7744C130.93 56.6735 130.674 56.5905 130.388 56.5254C130.105 56.457 129.783 56.4229 129.421 56.4229C128.607 56.4229 127.963 56.6849 127.488 57.209C127.016 57.7298 126.78 58.4362 126.78 59.3281C126.78 60.2689 127.027 61.0013 127.522 61.5254C128.017 62.0462 128.69 62.3066 129.543 62.3066C129.856 62.3066 130.167 62.2757 130.476 62.2139C130.788 62.152 131.062 62.0723 131.296 61.9746V60.1924H129.348V59.3428H132.253V62.4629ZM139.958 63H138.703L136.272 60.1094H134.909V63H133.943V55.7295H135.979C136.418 55.7295 136.784 55.7588 137.077 55.8174C137.37 55.8727 137.634 55.9736 137.868 56.1201C138.132 56.2861 138.337 56.4961 138.484 56.75C138.633 57.0007 138.708 57.3197 138.708 57.707C138.708 58.2311 138.576 58.6706 138.313 59.0254C138.049 59.377 137.686 59.6423 137.224 59.8213L139.958 63ZM137.698 57.7754C137.698 57.5671 137.66 57.3831 137.585 57.2236C137.514 57.0609 137.393 56.9242 137.224 56.8135C137.084 56.7191 136.918 56.654 136.726 56.6182C136.534 56.5791 136.308 56.5596 136.047 56.5596H134.909V59.3037H135.886C136.192 59.3037 136.459 59.2777 136.687 59.2256C136.915 59.1702 137.108 59.0693 137.268 58.9229C137.414 58.7861 137.522 58.6299 137.59 58.4541C137.662 58.2751 137.698 58.0488 137.698 57.7754ZM145.686 63H140.896V55.7295H145.686V56.5889H141.863V58.5811H145.686V59.4404H141.863V62.1406H145.686V63ZM153.288 62.4629C152.891 62.6452 152.457 62.8047 151.985 62.9414C151.516 63.0749 151.062 63.1416 150.622 63.1416C150.056 63.1416 149.537 63.0635 149.065 62.9072C148.593 62.751 148.191 62.5166 147.859 62.2041C147.523 61.8883 147.265 61.4945 147.082 61.0225C146.9 60.5472 146.809 59.9922 146.809 59.3574C146.809 58.1953 147.147 57.279 147.824 56.6084C148.505 55.9346 149.437 55.5977 150.622 55.5977C151.036 55.5977 151.457 55.6481 151.887 55.749C152.32 55.8467 152.785 56.0143 153.283 56.252V57.3994H153.196C153.095 57.3213 152.948 57.2188 152.756 57.0918C152.564 56.9648 152.375 56.859 152.19 56.7744C151.965 56.6735 151.71 56.5905 151.423 56.5254C151.14 56.457 150.818 56.4229 150.456 56.4229C149.643 56.4229 148.998 56.6849 148.523 57.209C148.051 57.7298 147.815 58.4362 147.815 59.3281C147.815 60.2689 148.062 61.0013 148.557 61.5254C149.052 62.0462 149.726 62.3066 150.578 62.3066C150.891 62.3066 151.202 62.2757 151.511 62.2139C151.824 62.152 152.097 62.0723 152.331 61.9746V60.1924H150.383V59.3428H153.288V62.4629ZM160.71 63H159.68L158.967 60.9736H155.823L155.11 63H154.128L156.775 55.7295H158.064L160.71 63ZM158.669 60.1436L157.395 56.5742L156.116 60.1436H158.669ZM166.413 56.5889H163.816V63H162.849V56.5889H160.251V55.7295H166.413V56.5889ZM172.566 56.5645C172.862 56.89 173.088 57.2887 173.244 57.7607C173.404 58.2327 173.484 58.7682 173.484 59.3672C173.484 59.9661 173.402 60.5033 173.24 60.9785C173.08 61.4505 172.855 61.8444 172.566 62.1602C172.266 62.4889 171.911 62.7363 171.501 62.9023C171.094 63.0684 170.629 63.1514 170.105 63.1514C169.594 63.1514 169.128 63.0667 168.708 62.8975C168.292 62.7282 167.937 62.4824 167.644 62.1602C167.351 61.8379 167.125 61.4424 166.965 60.9736C166.809 60.5049 166.731 59.9694 166.731 59.3672C166.731 58.7747 166.809 58.2441 166.965 57.7754C167.121 57.3034 167.349 56.8997 167.649 56.5645C167.935 56.2454 168.29 56.0013 168.713 55.832C169.14 55.6628 169.603 55.5781 170.105 55.5781C170.626 55.5781 171.093 55.6644 171.506 55.8369C171.923 56.0062 172.276 56.2487 172.566 56.5645ZM172.478 59.3672C172.478 58.4232 172.266 57.6956 171.843 57.1846C171.42 56.6702 170.842 56.4131 170.11 56.4131C169.371 56.4131 168.79 56.6702 168.366 57.1846C167.947 57.6956 167.737 58.4232 167.737 59.3672C167.737 60.321 167.951 61.0518 168.381 61.5596C168.811 62.0641 169.387 62.3164 170.11 62.3164C170.832 62.3164 171.407 62.0641 171.833 61.5596C172.263 61.0518 172.478 60.321 172.478 59.3672ZM181.033 63H179.778L177.346 60.1094H175.984V63H175.017V55.7295H177.053C177.492 55.7295 177.859 55.7588 178.152 55.8174C178.445 55.8727 178.708 55.9736 178.943 56.1201C179.206 56.2861 179.411 56.4961 179.558 56.75C179.708 57.0007 179.783 57.3197 179.783 57.707C179.783 58.2311 179.651 58.6706 179.387 59.0254C179.123 59.377 178.76 59.6423 178.298 59.8213L181.033 63ZM178.772 57.7754C178.772 57.5671 178.734 57.3831 178.659 57.2236C178.588 57.0609 178.467 56.9242 178.298 56.8135C178.158 56.7191 177.992 56.654 177.8 56.6182C177.608 56.5791 177.382 56.5596 177.121 56.5596H175.984V59.3037H176.96C177.266 59.3037 177.533 59.2777 177.761 59.2256C177.989 59.1702 178.183 59.0693 178.342 58.9229C178.489 58.7861 178.596 58.6299 178.664 58.4541C178.736 58.2751 178.772 58.0488 178.772 57.7754Z" fill="black"/>
</svg>
