<svg width="159" height="24" viewBox="0 0 159 24" fill="none" xmlns="http://www.w3.org/2000/svg">
<path d="M62.7819 1.97607H59.8178C58.5076 1.97607 57.2511 2.49655 56.3246 3.42301C55.3981 4.34947 54.8777 5.60601 54.8777 6.91622V9.88031H51.9136V13.8324H54.8777V21.7367H58.8298V13.8324H61.7939L62.7819 9.88031H58.8298V6.91622C58.8298 6.65418 58.9339 6.40287 59.1192 6.21758C59.3045 6.03229 59.5558 5.92819 59.8178 5.92819H62.7819V1.97607Z" stroke="#040429" stroke-width="1.97606" stroke-linecap="round" stroke-linejoin="round"/>
<path d="M101.851 21.7367C107.308 21.7367 111.731 17.3131 111.731 11.8564C111.731 6.39963 107.308 1.97607 101.851 1.97607C96.3943 1.97607 91.9708 6.39963 91.9708 11.8564C91.9708 17.3131 96.3943 21.7367 101.851 21.7367Z" stroke="#040429" stroke-width="1.97606" stroke-linecap="round" stroke-linejoin="round"/>
<path d="M91.9708 11.8564H111.731" stroke="#040429" stroke-width="1.97606" stroke-linecap="round" stroke-linejoin="round"/>
<path d="M101.851 1.97607C104.322 4.68165 105.727 8.19279 105.803 11.8564C105.727 15.52 104.322 19.0311 101.851 21.7367C99.3797 19.0311 97.9753 15.52 97.899 11.8564C97.9753 8.19279 99.3797 4.68165 101.851 1.97607V1.97607Z" stroke="#040429" stroke-width="1.97606" stroke-linecap="round" stroke-linejoin="round"/>
<g clip-path="url(#clip0_109_96)">
<path d="M157.717 2.96428C156.77 3.63167 155.723 4.14212 154.614 4.47597C154.019 3.79177 153.228 3.30682 152.349 3.08672C151.469 2.86662 150.543 2.92199 149.696 3.24533C148.849 3.56867 148.121 4.14439 147.612 4.89461C147.103 5.64484 146.836 6.53338 146.848 7.44006V8.42809C145.112 8.47311 143.391 8.08802 141.84 7.30711C140.288 6.52621 138.954 5.37373 137.956 3.95231C137.956 3.95231 134.004 12.8446 142.896 16.7967C140.861 18.1779 138.437 18.8705 135.98 18.7728C144.872 23.7129 155.741 18.7728 155.741 7.41042C155.74 7.1352 155.713 6.86067 155.662 6.59035C156.67 5.59589 157.381 4.34032 157.717 2.96428V2.96428Z" stroke="#040429" stroke-width="1.97606" stroke-linecap="round" stroke-linejoin="round"/>
</g>
<path d="M16.7965 1.97607H6.9162C4.18783 1.97607 1.97605 4.18785 1.97605 6.91622V16.7965C1.97605 19.5249 4.18783 21.7367 6.9162 21.7367H16.7965C19.5249 21.7367 21.7366 19.5249 21.7366 16.7965V6.91622C21.7366 4.18785 19.5249 1.97607 16.7965 1.97607Z" stroke="#040429" stroke-width="1.97606" stroke-linecap="round" stroke-linejoin="round"/>
<path d="M15.8084 11.234C15.9304 12.0563 15.7899 12.8961 15.407 13.6339C15.0242 14.3718 14.4184 14.9701 13.6759 15.3439C12.9334 15.7176 12.0919 15.8477 11.2712 15.7156C10.4505 15.5836 9.69228 15.1961 9.10448 14.6083C8.51668 14.0205 8.12919 13.2623 7.99713 12.4416C7.86506 11.6209 7.99515 10.7794 8.36888 10.0369C8.74262 9.29434 9.34097 8.68856 10.0788 8.3057C10.8167 7.92284 11.6565 7.78239 12.4788 7.90432C13.3175 8.0287 14.094 8.41955 14.6936 9.01913C15.2932 9.6187 15.684 10.3952 15.8084 11.234Z" stroke="#040429" stroke-width="1.97606" stroke-linecap="round" stroke-linejoin="round"/>
<path d="M17.2905 6.42212H17.3021" stroke="#040429" stroke-width="1.97606" stroke-linecap="round" stroke-linejoin="round"/>
<defs>
<clipPath id="clip0_109_96">
<rect width="23.7127" height="23.7127" fill="white" transform="translate(134.992)"/>
</clipPath>
</defs>
</svg>
